<?xml version="1.0" encoding="UTF-8" standalone="no"?>
<!DOCTYPE svg PUBLIC "-//W3C//DTD SVG 1.1//EN"
 "http://www.w3.org/Graphics/SVG/1.1/DTD/svg11.dtd">
<!-- Generated by graphviz version 2.40.1 (20161225.0304)
 -->
<!-- Title: i2c_state_machine Pages: 1 -->
<svg width="1901pt" height="288pt"
 viewBox="0.00 0.00 1901.00 288.00" xmlns="http://www.w3.org/2000/svg" xmlns:xlink="http://www.w3.org/1999/xlink">
<g id="graph0" class="graph" transform="scale(1 1) rotate(0) translate(4 284)">
<title>i2c_state_machine</title>
<polygon fill="#ffffff" stroke="transparent" points="-4,4 -4,-284 1897,-284 1897,4 -4,4"/>
<g id="clust1" class="cluster">
<title>cluster_setup</title>
<polygon fill="none" stroke="#000000" points="815,-142 815,-268 1885,-268 1885,-142 815,-142"/>
<text text-anchor="middle" x="1350" y="-252.8" font-family="Times,serif" font-size="14.00" fill="#000000">Transaction Setup</text>
</g>
<g id="clust2" class="cluster">
<title>cluster_run</title>
<polygon fill="none" stroke="#000000" points="8,-8 8,-134 1360,-134 1360,-8 8,-8"/>
<text text-anchor="middle" x="684" y="-118.8" font-family="Times,serif" font-size="14.00" fill="#000000">Run Transaction</text>
</g>
<!-- ENTRY -->
<g id="node1" class="node">
<title>ENTRY</title>
<ellipse fill="#000000" stroke="#000000" cx="609.5" cy="-168" rx="1.8" ry="1.8"/>
</g>
<!-- Add -->
<g id="node3" class="node">
<title>Add</title>
<path fill="none" stroke="#000000" d="M938,-186C938,-186 835,-186 835,-186 829,-186 823,-180 823,-174 823,-174 823,-162 823,-162 823,-156 829,-150 835,-150 835,-150 938,-150 938,-150 944,-150 950,-156 950,-162 950,-162 950,-174 950,-174 950,-180 944,-186 938,-186"/>
<text text-anchor="middle" x="886.5" y="-164.3" font-family="Times,serif" font-size="14.00" fill="#000000">Add TXN to Queue</text>
</g>
<!-- ENTRY&#45;&gt;Add -->
<g id="edge1" class="edge">
<title>ENTRY&#45;&gt;Add</title>
<path fill="none" stroke="#000000" d="M611.5704,-168C627.8597,-168 736.7503,-168 812.4992,-168"/>
<polygon fill="#000000" stroke="#000000" points="812.9547,-171.5001 822.9547,-168 812.9546,-164.5001 812.9547,-171.5001"/>
<text text-anchor="middle" x="736.5" y="-171.8" font-family="Times,serif" font-size="14.00" fill="#000000">i2cTransaction Port Call</text>
</g>
<!-- EXIT -->
<g id="node2" class="node">
<title>EXIT</title>
<ellipse fill="#000000" stroke="#000000" cx="1488.5" cy="-85" rx="1.8" ry="1.8"/>
</g>
<!-- QFlag -->
<g id="node4" class="node">
<title>QFlag</title>
<path fill="none" stroke="#000000" d="M1249,-186C1249,-186 1152,-186 1152,-186 1146,-186 1140,-180 1140,-174 1140,-174 1140,-162 1140,-162 1140,-156 1146,-150 1152,-150 1152,-150 1249,-150 1249,-150 1255,-150 1261,-156 1261,-162 1261,-162 1261,-174 1261,-174 1261,-180 1255,-186 1249,-186"/>
<text text-anchor="middle" x="1200.5" y="-164.3" font-family="Times,serif" font-size="14.00" fill="#000000">Queue Assert Flag</text>
</g>
<!-- Add&#45;&gt;QFlag -->
<g id="edge3" class="edge">
<title>Add&#45;&gt;QFlag</title>
<path fill="none" stroke="#000000" d="M950.0426,-168C1002.1477,-168 1075.8455,-168 1129.8074,-168"/>
<polygon fill="#000000" stroke="#000000" points="1129.9838,-171.5001 1139.9838,-168 1129.9838,-164.5001 1129.9838,-171.5001"/>
<text text-anchor="middle" x="1070" y="-171.8" font-family="Times,serif" font-size="14.00" fill="#000000">Q = Max</text>
</g>
<!-- Check -->
<g id="node5" class="node">
<title>Check</title>
<path fill="none" stroke="#000000" d="M1544,-224C1544,-224 1433,-224 1433,-224 1427,-224 1421,-218 1421,-212 1421,-212 1421,-200 1421,-200 1421,-194 1427,-188 1433,-188 1433,-188 1544,-188 1544,-188 1550,-188 1556,-194 1556,-200 1556,-200 1556,-212 1556,-212 1556,-218 1550,-224 1544,-224"/>
<text text-anchor="middle" x="1488.5" y="-202.3" font-family="Times,serif" font-size="14.00" fill="#000000">Check Running State</text>
</g>
<!-- Add&#45;&gt;Check -->
<g id="edge4" class="edge">
<title>Add&#45;&gt;Check</title>
<path fill="none" stroke="#000000" d="M924.5601,-186.1314C961.0225,-201.819 1018.0288,-222 1070,-222 1070,-222 1070,-222 1325,-222 1352.9456,-222 1383.4507,-219.6561 1410.4623,-216.7626"/>
<polygon fill="#000000" stroke="#000000" points="1411.0798,-220.2155 1420.6311,-215.6304 1410.3052,-213.2585 1411.0798,-220.2155"/>
<text text-anchor="middle" x="1200.5" y="-225.8" font-family="Times,serif" font-size="14.00" fill="#000000">Q &lt; Max</text>
</g>
<!-- QAsrt -->
<g id="node11" class="node">
<title>QAsrt</title>
<path fill="none" stroke="#000000" d="M1091,-52C1091,-52 1049,-52 1049,-52 1043,-52 1037,-46 1037,-40 1037,-40 1037,-28 1037,-28 1037,-22 1043,-16 1049,-16 1049,-16 1091,-16 1091,-16 1097,-16 1103,-22 1103,-28 1103,-28 1103,-40 1103,-40 1103,-46 1097,-52 1091,-52"/>
<text text-anchor="middle" x="1070" y="-30.3" font-family="Times,serif" font-size="14.00" fill="#000000">Q Assert</text>
</g>
<!-- Add&#45;&gt;QAsrt -->
<g id="edge2" class="edge">
<title>Add&#45;&gt;QAsrt</title>
<path fill="none" stroke="#000000" d="M929.0471,-149.8789C936.2259,-146.2673 943.4631,-142.2615 950,-138 969.186,-125.4922 1014.0165,-85.4111 1043.1213,-58.8174"/>
<polygon fill="#000000" stroke="#000000" points="1045.5091,-61.3766 1050.5176,-52.0404 1040.7801,-56.2155 1045.5091,-61.3766"/>
<text text-anchor="middle" x="993.5" y="-127.8" font-family="Times,serif" font-size="14.00" fill="#000000">Q &gt; Max</text>
</g>
<!-- QFlag&#45;&gt;Check -->
<g id="edge5" class="edge">
<title>QFlag&#45;&gt;Check</title>
<path fill="none" stroke="#000000" d="M1261.2255,-176.0124C1304.7366,-181.7534 1363.7028,-189.5337 1410.6689,-195.7306"/>
<polygon fill="#000000" stroke="#000000" points="1410.4307,-199.2294 1420.8027,-197.0677 1411.3464,-192.2896 1410.4307,-199.2294"/>
</g>
<!-- Skip2 -->
<g id="node6" class="node">
<title>Skip2</title>
<path fill="none" stroke="#000000" d="M1865,-224C1865,-224 1717,-224 1717,-224 1711,-224 1705,-218 1705,-212 1705,-212 1705,-200 1705,-200 1705,-194 1711,-188 1717,-188 1717,-188 1865,-188 1865,-188 1871,-188 1877,-194 1877,-200 1877,-200 1877,-212 1877,-212 1877,-218 1871,-224 1865,-224"/>
<text text-anchor="middle" x="1791" y="-202.3" font-family="Times,serif" font-size="14.00" fill="#000000">Jump to Previous Run State</text>
</g>
<!-- Check&#45;&gt;Skip2 -->
<g id="edge7" class="edge">
<title>Check&#45;&gt;Skip2</title>
<path fill="none" stroke="#000000" d="M1556.0104,-206C1596.8863,-206 1649.6775,-206 1694.8654,-206"/>
<polygon fill="#000000" stroke="#000000" points="1694.9792,-209.5001 1704.9791,-206 1694.9791,-202.5001 1694.9792,-209.5001"/>
<text text-anchor="middle" x="1630.5" y="-209.8" font-family="Times,serif" font-size="14.00" fill="#000000">Run != IDLE</text>
</g>
<!-- Start -->
<g id="node7" class="node">
<title>Start</title>
<path fill="none" stroke="#000000" d="M71,-103C71,-103 28,-103 28,-103 22,-103 16,-97 16,-91 16,-91 16,-79 16,-79 16,-73 22,-67 28,-67 28,-67 71,-67 71,-67 77,-67 83,-73 83,-79 83,-79 83,-91 83,-91 83,-97 77,-103 71,-103"/>
<text text-anchor="middle" x="49.5" y="-81.3" font-family="Times,serif" font-size="14.00" fill="#000000">I2C Start</text>
</g>
<!-- Check&#45;&gt;Start -->
<g id="edge6" class="edge">
<title>Check&#45;&gt;Start</title>
<path fill="none" stroke="#000000" d="M1458.3299,-224.0225C1426.3751,-241.3734 1373.8868,-265 1325,-265 120.5,-265 120.5,-265 120.5,-265 88.2751,-265 64.4741,-163.9044 54.5696,-113.241"/>
<polygon fill="#000000" stroke="#000000" points="57.9763,-112.4196 52.669,-103.2499 51.0996,-113.7279 57.9763,-112.4196"/>
<text text-anchor="middle" x="511.5" y="-268.8" font-family="Times,serif" font-size="14.00" fill="#000000">Run == IDLE</text>
</g>
<!-- Write -->
<g id="node8" class="node">
<title>Write</title>
<path fill="none" stroke="#000000" d="M230,-103C230,-103 170,-103 170,-103 164,-103 158,-97 158,-91 158,-91 158,-79 158,-79 158,-73 164,-67 170,-67 170,-67 230,-67 230,-67 236,-67 242,-73 242,-79 242,-79 242,-91 242,-91 242,-97 236,-103 230,-103"/>
<text text-anchor="middle" x="200" y="-81.3" font-family="Times,serif" font-size="14.00" fill="#000000">Write Bytes</text>
</g>
<!-- Start&#45;&gt;Write -->
<g id="edge8" class="edge">
<title>Start&#45;&gt;Write</title>
<path fill="none" stroke="#000000" d="M83.2751,-85C102.2669,-85 126.3844,-85 147.7608,-85"/>
<polygon fill="#000000" stroke="#000000" points="148,-88.5001 158,-85 148,-81.5001 148,-88.5001"/>
</g>
<!-- Repet -->
<g id="node9" class="node">
<title>Repet</title>
<path fill="none" stroke="#000000" d="M404,-103C404,-103 329,-103 329,-103 323,-103 317,-97 317,-91 317,-91 317,-79 317,-79 317,-73 323,-67 329,-67 329,-67 404,-67 404,-67 410,-67 416,-73 416,-79 416,-79 416,-91 416,-91 416,-97 410,-103 404,-103"/>
<text text-anchor="middle" x="366.5" y="-81.3" font-family="Times,serif" font-size="14.00" fill="#000000">Repeated Start</text>
</g>
<!-- Write&#45;&gt;Repet -->
<g id="edge9" class="edge">
<title>Write&#45;&gt;Repet</title>
<path fill="none" stroke="#000000" d="M242.015,-85C261.5532,-85 285.1454,-85 306.5142,-85"/>
<polygon fill="#000000" stroke="#000000" points="306.7982,-88.5001 316.7982,-85 306.7982,-81.5001 306.7982,-88.5001"/>
</g>
<!-- Read -->
<g id="node10" class="node">
<title>Read</title>
<path fill="none" stroke="#000000" d="M638,-103C638,-103 581,-103 581,-103 575,-103 569,-97 569,-91 569,-91 569,-79 569,-79 569,-73 575,-67 581,-67 581,-67 638,-67 638,-67 644,-67 650,-73 650,-79 650,-79 650,-91 650,-91 650,-97 644,-103 638,-103"/>
<text text-anchor="middle" x="609.5" y="-81.3" font-family="Times,serif" font-size="14.00" fill="#000000">Read Bytes</text>
</g>
<!-- Repet&#45;&gt;Read -->
<g id="edge10" class="edge">
<title>Repet&#45;&gt;Read</title>
<path fill="none" stroke="#000000" d="M416.2611,-85C457.7348,-85 516.5832,-85 558.4199,-85"/>
<polygon fill="#000000" stroke="#000000" points="558.6689,-88.5001 568.6689,-85 558.6688,-81.5001 558.6689,-88.5001"/>
</g>
<!-- Read&#45;&gt;QAsrt -->
<g id="edge11" class="edge">
<title>Read&#45;&gt;QAsrt</title>
<path fill="none" stroke="#000000" d="M650.3663,-80.4741C736.9667,-70.8832 938.2494,-48.5913 1026.837,-38.7803"/>
<polygon fill="#000000" stroke="#000000" points="1027.2615,-42.2547 1036.8155,-37.6752 1026.4909,-35.2973 1027.2615,-42.2547"/>
<text text-anchor="middle" x="886.5" y="-65.8" font-family="Times,serif" font-size="14.00" fill="#000000">Assert Flag</text>
</g>
<!-- Idle -->
<g id="node12" class="node">
<title>Idle</title>
<path fill="none" stroke="#000000" d="M1340,-103C1340,-103 1310,-103 1310,-103 1304,-103 1298,-97 1298,-91 1298,-91 1298,-79 1298,-79 1298,-73 1304,-67 1310,-67 1310,-67 1340,-67 1340,-67 1346,-67 1352,-73 1352,-79 1352,-79 1352,-91 1352,-91 1352,-97 1346,-103 1340,-103"/>
<text text-anchor="middle" x="1325" y="-81.3" font-family="Times,serif" font-size="14.00" fill="#000000">IDLE</text>
</g>
<!-- Read&#45;&gt;Idle -->
<g id="edge12" class="edge">
<title>Read&#45;&gt;Idle</title>
<path fill="none" stroke="#000000" d="M650.3311,-85.7186C704.3614,-86.6061 802.5775,-88 886.5,-88 886.5,-88 886.5,-88 1200.5,-88 1229.8233,-88 1263.0202,-87.158 1287.7561,-86.3661"/>
<polygon fill="#000000" stroke="#000000" points="1287.925,-89.8625 1297.8032,-86.0324 1287.6925,-82.8664 1287.925,-89.8625"/>
<text text-anchor="middle" x="1070" y="-91.8" font-family="Times,serif" font-size="14.00" fill="#000000">De&#45;Q</text>
</g>
<!-- QAsrt&#45;&gt;Idle -->
<g id="edge13" class="edge">
<title>QAsrt&#45;&gt;Idle</title>
<path fill="none" stroke="#000000" d="M1103.2914,-39.062C1141.5348,-45.0767 1206.0827,-55.8406 1261,-68 1269.7131,-69.9292 1279.0266,-72.2515 1287.7752,-74.5511"/>
<polygon fill="#000000" stroke="#000000" points="1287.1509,-78.0072 1297.7161,-77.2153 1288.9631,-71.2458 1287.1509,-78.0072"/>
<text text-anchor="middle" x="1200.5" y="-71.8" font-family="Times,serif" font-size="14.00" fill="#000000">FW_ASSERT</text>
</g>
<!-- Idle&#45;&gt;EXIT -->
<g id="edge15" class="edge">
<title>Idle&#45;&gt;EXIT</title>
<path fill="none" stroke="#000000" d="M1352.3662,-85C1388.4294,-85 1450.3337,-85 1476.3853,-85"/>
<polygon fill="#000000" stroke="#000000" points="1476.5993,-88.5001 1486.5993,-85 1476.5992,-81.5001 1476.5993,-88.5001"/>
</g>
<!-- Idle&#45;&gt;Check -->
<g id="edge14" class="edge">
<title>Idle&#45;&gt;Check</title>
<path fill="none" stroke="#000000" d="M1349.4776,-103.1149C1377.7332,-124.0258 1424.3332,-158.5127 1455.7056,-181.7301"/>
<polygon fill="#000000" stroke="#000000" points="1454.0022,-184.8237 1464.1225,-187.9591 1458.1663,-179.197 1454.0022,-184.8237"/>
<text text-anchor="middle" x="1386.5" y="-144.8" font-family="Times,serif" font-size="14.00" fill="#000000">Q &gt; 0</text>
</g>
</g>
</svg>
